/* XPM */
static char *_ed14ba872ba496a811a35e37bca8123[] = {
/* columns rows colors chars-per-pixel */
"64 64 256 2 ",
"   c #010101",
".  c #030708",
"X  c #040B0C",
"o  c #0B0B0B",
"O  c #0C0F10",
"+  c #061314",
"@  c #0B1213",
"#  c #0B1A1C",
"$  c #07191A",
"%  c #131314",
"&  c #1A1A1B",
"*  c #141A1A",
"=  c #0F1F21",
"-  c #0B2224",
";  c #0D282A",
":  c #17292A",
">  c #0E2E32",
",  c #1D3233",
"<  c #11363A",
"1  c #123A3E",
"2  c #103437",
"3  c #122F32",
"4  c #222323",
"5  c #2B2C2D",
"6  c #272728",
"7  c #333435",
"8  c #38393A",
"9  c #22393B",
"0  c #123E42",
"q  c #333F41",
"w  c #16454A",
"e  c #154145",
"r  c #184D52",
"t  c #134C51",
"y  c #1C565D",
"u  c #07585E",
"i  c #2B494B",
"p  c #2D5256",
"a  c #0B5D65",
"s  c #1D5C62",
"d  c #115F66",
"f  c #3A5F62",
"g  c #1B646A",
"h  c #1A656C",
"j  c #0D6F77",
"k  c #137279",
"l  c #21656C",
"z  c #38686C",
"x  c #236E76",
"c  c #356C71",
"v  c #25737B",
"b  c #287278",
"n  c #36787D",
"m  c #404344",
"M  c #464748",
"N  c #484A4B",
"B  c #4C5354",
"V  c #525355",
"C  c #5A5B5D",
"Z  c #565759",
"A  c #4E4F50",
"S  c #5D5E60",
"D  c #496669",
"F  c #466E71",
"G  c #55797C",
"H  c #507074",
"J  c #6B6C6E",
"K  c #636567",
"L  c #6F7173",
"P  c #737476",
"I  c #78797C",
"U  c #6D6E70",
"Y  c #147C84",
"T  c #277A83",
"R  c #337E85",
"E  c #5A7E81",
"W  c #7C7E80",
"Q  c #0D838D",
"!  c #0F8F9A",
"~  c #168791",
"^  c #16959F",
"/  c #10828C",
"(  c #2B838D",
")  c #2D888F",
"_  c #2A8A94",
"`  c #388C93",
"'  c #2E939D",
"]  c #21939C",
"[  c #37939B",
"{  c #1396A1",
"}  c #139BA6",
"|  c #159DA8",
" . c #1C9EA9",
".. c #1A99A4",
"X. c #259AA4",
"o. c #299EA8",
"O. c #319AA5",
"+. c #329AA5",
"@. c #1EA0AB",
"#. c #24A2AC",
"$. c #2AA4AE",
"%. c #33A2AC",
"&. c #3BA3AC",
"*. c #2EA7B1",
"=. c #2EA9B3",
"-. c #35A5B1",
";. c #34AAB4",
":. c #3CADB6",
">. c #36ADB9",
",. c #3CAFB9",
"<. c #3AB1BD",
"1. c #36B0BC",
"2. c #588589",
"3. c #48949B",
"4. c #57979B",
"5. c #4C8A8F",
"6. c #788789",
"7. c #7A989A",
"8. c #6E8F91",
"9. c #599EA4",
"0. c #6A9FA4",
"q. c #48A3AB",
"w. c #53A5AD",
"e. c #5FA5AB",
"r. c #4DACB4",
"t. c #42AFB8",
"y. c #43ABB3",
"u. c #53A8B0",
"i. c #5BACB3",
"p. c #45B1BB",
"a. c #4CB4BC",
"s. c #52B6BE",
"d. c #5FB4BB",
"f. c #6AA2A8",
"g. c #7BA6AB",
"h. c #66AFB5",
"j. c #74ADB3",
"k. c #78ABB0",
"l. c #6BB3B9",
"z. c #67B4BA",
"x. c #73B5BC",
"c. c #73B9BF",
"v. c #7BB9BF",
"b. c #7AB3B9",
"n. c #3AB6C3",
"m. c #3BB9C6",
"M. c #3CBBC8",
"N. c #41BAC6",
"B. c #4CB7C0",
"V. c #55B8C0",
"C. c #5BBBC2",
"Z. c #56B7C0",
"A. c #63BEC5",
"S. c #6ABFC6",
"D. c #63BFC8",
"F. c #78BCC2",
"G. c #57C3CE",
"H. c #62C2CA",
"J. c #6CC1C9",
"K. c #65C0C7",
"L. c #7AC1C7",
"P. c #73C5CC",
"I. c #79C7CE",
"U. c #7CC9CF",
"Y. c #77C8CF",
"T. c #6ACAD3",
"R. c #74CBD4",
"E. c #7CCAD1",
"W. c #79CFD8",
"Q. c #828486",
"!. c #898B8D",
"~. c #8A8F91",
"^. c #849495",
"/. c #82999A",
"(. c #929396",
"). c #949699",
"_. c #97999B",
"`. c #999B9E",
"'. c #9D9FA2",
"]. c #959DA0",
"[. c #8D9FA0",
"{. c #8CA1A5",
"}. c #81A4A9",
"|. c #83A7AB",
" X c #91A0A3",
".X c #9DA1A4",
"XX c #94A6A9",
"oX c #9EA5A8",
"OX c #92ABAF",
"+X c #84ADB2",
"@X c #8EB7BC",
"#X c #84B8BE",
"$X c #8EB9BE",
"%X c #83B7BD",
"&X c #94B5B9",
"*X c #A1A3A6",
"=X c #A1A6A9",
"-X c #A9ABAE",
";X c #A1AAAD",
":X c #AABBBC",
">X c #A5BABC",
",X c #B6B7B9",
"<X c #B6B7B9",
"1X c #ADAFB1",
"2X c #8AC6CB",
"3X c #94C4C9",
"4X c #92CACF",
"5X c #9BC5C9",
"6X c #82CCD2",
"7X c #89CED4",
"8X c #9BCDD2",
"9X c #8DD0D6",
"0X c #87D6DF",
"qX c #90D2D7",
"wX c #94D4D9",
"eX c #9BD6DB",
"rX c #9CD8DD",
"tX c #A2CBCF",
"yX c #ABC4C7",
"uX c #BBC7C8",
"iX c #A9CDD1",
"pX c #A3D2D6",
"aX c #ABD2D5",
"sX c #ACD5D9",
"dX c #A2DADF",
"fX c #AED9DC",
"gX c #B3D9DC",
"hX c #B9D5D7",
"jX c #9EDEE4",
"kX c #A5DCE0",
"lX c #AADEE2",
"zX c #B3DDE0",
"xX c #BCDEE1",
"cX c #ADE0E4",
"vX c #B3E1E5",
"bX c #BCE6E9",
"nX c #BAE4E8",
"mX c #C8CACB",
"MX c #CECFD0",
"NX c #C8D3D4",
"BX c #D4D5D6",
"VX c #CAE3E5",
"CX c #C1E7EA",
"ZX c #C5E9EC",
"AX c #CAEBEE",
"SX c #C6E3E6",
"DX c #D0EAEC",
"FX c #CEEDF0",
"GX c #D2EFF1",
"HX c #D6F1F3",
"JX c #E4E5E6",
"KX c #EAEBEB",
"LX c #FEFEFE",
"PX c #F4F8F8",
"IX c #E4F5F7",
"UX c None",
/* pixels */
"UXUXUXUXUXUXUXUXUXUXUXUXUXUXUXUXUXUXUXUXUXUXUXUXUXUXUXUXUXUXUXUXUXUXUXUXUXUXUXUXUXUXUXUXUXUXUXUXUXUXUXUXUXUXUXUXUXUXUXUXUXUXUXUX",
"UXUXUXUXUXUXUXUXUXUXUXUXUXUXUXUXUXUXUXUXUXUXUXUXUXUXUXUXUXUXUXUXUXUXUXUXUXUXUXUXUXUXUXUXUXUXUXUXUXUXUXUXUXUXUXUXUXUXUXUXUXUXUXUX",
"UXUXUXUXUXUXUXUXUXUXUXUXUXUXUXUXUXUXUXUXUXUXUXUXUX5.9.i.z.J.J.J.P.I.I.L.v.j.0.UXUXUXUXUXUXUXUXUXUXUXUXUXUXUXUXUXUXUXUXUXUXUXUXUX",
"UXUXUXUXUXUXUXUXUXUXUXUXUXUXUXUXUXUXUXUXUXc 3.s.C.C.C.H.S.J.J.P.P.P.I.U.E.6X7X7X2X+X2.UXUXUXUXUXUXUXUXUXUXUXUXUXUXUXUXUXUXUXUXUX",
"UXUXUXUXUXUXUXUXUXUXUXUXUXUXUXUXUXUXUXR r.a.V.V.C.C.A.A.D.J.J.P.P.I.I.U.6X6X6X7X9XqXwX7X7.UXUXUXUXUXUXUXUXUXUXUXUXUXUXUXUXUXUXUX",
"UXUXUXUXUXUXUXUXUXUXUXUXUXUXUXUXUXR y.a.a.a.s.V.C.C.C.A.D.S.J.J.P.P.I.U.6X6X7X7X9XqXqXrXrX8X}.UXUXUXUXUXUXUXUXUXUXUXUXUXUXUXUXUX",
"UXUXUXUXUXUXUXUXUXUXUXUXUXUXUXl &.t.p.p.a.a.V.V.C.C.A.A.S.J.J.J.P.Y.I.U.6X6X6X7X9XqXwXwXrXrXdXtX8.UXUXUXUXUXUXUXUXUXUXUXUXUXUXUX",
"UXUXUXUXUXUXUXUXUXUXUXUXUXUX) :.t.t.p.a.a.s.s.V.V.C.A.A.D.J.J.P.P.P.I.U.6X6X7X7X9XqXwXwXrXrXdXdXfX&XUXUXUXUXUXUXUXUXUXUXUXUXUXUX",
"UXUXUXUXUXUXUXUXUXUXUXUXUXO.:.:.:.t.p.a.a.a.s.V.C.C.A.A.D.J.J.J.P.P.I.U.6X6X6X7X9XqXqXeXeXeXdXdXdXcXtXUXUXUXUXUXUXUXUXUXUXUXUXUX",
"UXUXUXUXUXUXUXUXUXUXUXUX%.;.;.:.t.t.p.a.a.a.V.V.C.C.C.A.D.J.J.P.P.Y.I.6X6X6X7X7X9XqXwXwXeXrXdXdXlXlXcXfXUXUXUXUXUXUXUXUXUXUXUXUX",
"UXUXUXUXUXUXUXUXUXUXg o.;.;.:.:.,.t.p.a.a.a.V.V.C.C.D.K.S.J.J.P.P.P.I.U.E.6X6X7X9XqXqXeXeXrXdXdXkXcXcXvXzX7.UXUXUXUXUXUXUXUXUXUX",
"UXUXUXUXUXUXUXUXUXUX$.;.;.;.:.:.<.p.p.p.a.a.B.V.V.C.C.C.C.A.K.J.J.P.I.U.6X2X2X2X4X4X4X8X8X8XpXpXpXaXaXsXgXgXUXUXUXUXUXUXUXUXUXUX",
"UXUXUXUXUXUXUXUXUXX.=.n.n.m.n.m.m.v v ,.m.m.n.M.M.M.N.n.m.M.m.N.N.H.I.E.6X$XoXoXoXoXoX.XoXoXoX*XoXoXoXoX;XgXxXUXUXUXUXUXUXUXUXUX",
"UXUXUXUXUXUXUXUX] $.=.n.m.n.m.M.O.+ . 1 ' n.m.n.m.m.M.n.m.m.m.m.M.H.I.U.6X@X`.*X]..X'.'.'.'..X.X.X'.`..XoXgXbXgXUXUXUXUXUXUXUXUX",
"UXUXUXUXUXUXUX~ $.$.=.n.m.m.m.n.r       X r %.m.m.m.M.W.nXcXT.m.M.H.I.U.6X@X.X`..X.X.X'.'..X`.`.'.'..X.X=XgXbXbXyXUXUXUXUXUXUXUX",
"UXUXUXUXUXUXd @.#.$.=.n.m.m.m._ X     . +   # l ;.m.R.PXLXLXHXG.M.K.I.U.E.@X`.*X.X`.'.'.'.'..X.X'.'.*X`.=XgXbXbXZX^.UXUXUXUXUXUX",
"UXUXUXUXUXUX..#.#.$.=.n.m.m.1.2       0 O.r .   > ' jXLXLXLXLXR.m.H.U.U.6X@X'.'.'.'.'.'.'.'.'.'.'.'.'.'.=XgXbXbXZXxXUXUXUXUXUXUX",
"UXUXUXUXUXk @.#.#.$.=.m.m.M.v .     O ' m.n.y     > P.PXLXLXIXG.m.H.I.U.E.@X'.'.'.'.'.'.'.'.'.'.'.'.'.'.=XgXbXbXZXZX>XUXUXUXUXUX",
"UXUXUXUXUX{ @.#.#.$.=.n.m.-.;       y n.m.M.( .   . ) 0XZXbXR.m.m.H.I.U.6X@X'.'.'.'.'.'.'.'.'.'.'.'.'.'.=XgXbXbXbXZXSXUXUXUXUXUX",
"UXUXUXUXj @.@.#.#.$.=.n.m.s       - %.m.m.m.s       v m.M.N.m.m.m.H.I.U.6X@X'.'.'.'.'.'.'.'.'.'..X'.'.'.*XgXbXbXZXZXAX;XUXUXUXUX",
"UXUXUXUX^ @. .#.$.$.=.n.O.+       l M.m.M.%.$     . ( m.m.M.m.M.m.H.E.E.6X@X'.'.'.`.'.'.'.'.'.'.`.*X'.'.*XgXbXbXbXZXAXVXUXUXUXUX",
"UXUXUXa  . . .#.#.$.=.n.w         ; T ;.-.e       > ;.m.m.m.1.T s c e.U.6X@X'..X<XMXmX-X'.'.'.'.*X`.*X`.=XgXbXbXZXZXZXFX^.UXUXUX",
"UXUXUX/  . . .#.#.$.=.( X     . ;   . - #       X ( m.m.m.%.2       % f l.&X'.<XPXLXLXJX-X'.'.'.`.*X`.*X=XgXnXbXZXZXZXAXhXUXUXUX",
"UXUXUX{  . . .#.#.$.o.>       w ;.v $   . .   - T M.m.n.<.e             ; K ).MXLXLXLXLX<X'.'.'.*X`.*X`.=XgXnXbXbXZXAXAXVXUXUXUX",
"UXUXUX| |  . .@.#.*.g       + ' m.M.v . . > v -.m.m.m.m.T .     . i H i     7 <XLXLXLXPX1X'.'.'.'.'.'.'.oXgXbXbXCXZXAXDXGXUXUXUX",
"UXUXj |  . .X.#.#.] -       s n.m.M.' X     s M.m.m.m.;.;       i S.E.c.,     V BXKXKX<X'.'.'.'.'.'.'.'.=XgXbXbXbXZXZXAXGX:XUXUX",
"UXUX/ | |  . .#.#.t       - -.m.m.m.s       1 n.m.m.m.l       * e.Y.Y.U.i     4 ).=X*X'.'.'.'.'.'.'.'.'.=XgXbXbXZXZXZXZXDXhXUXUX",
"UXUX! |  . . .#.X.0       v m.m.m.O.$       x M.m.m.O.-       z R.P.I.l.=     % ~.*X'.'.'.'.'.'.'.'.'.'.=XgXbXbXbXZXZXAXAXVXUXUX",
"UXUX! | |  . .#.#.X.h - < 1.m.m.n.r       > 1.m.m.n.r       # e.Y.P.I.f       5 _.'.'.'.*X'.`.*X.X'.'..X=XgXbXbXCXZXZXAXGXDXUXUX",
"UXUX} }  . . .#.#.$.=.%.%.m.m.m.) X     . ( M.m.m._ X         9 5.P.0.@     o K .X'.'.`.L m 7 A Q..X.X'.oXgXbXbXCXZXZXAXAXHXUXUX",
"UXUX} } |  . .#.#.$.=.m.m.m.m.1.2       w n.m.m.n.1       : ,   X i 9       5 ).'.'.`.A o       % V ~.*X;XgXbXbXCXZXZXAXAXGXUXUX",
"UXUX} }  . .@.#.$.$.=.n.m.m.m.-.<     + ' m.m.M.v .     X 4.d.F &         o P *X'.*XL o             4 K .XgXbXbXCXCXAXAXDXHXUXUX",
"UXUX} }  . . .#.#.$.=.n.m.m.m.m.,.x - s m.m.m.-.;       p K.F.XXI %       m ].*X'.).5       4 J J 7   o N aXbXbXZXCXZXAXGXGXUXUX",
"UXUX} | |  . .#.#.#.=.n.m.m.m.m.m.m.-.1.m.m.m.g       # w.F.XX'.C .     * 7.*X'.*XS       % W *X*X`.K % . 8.bXbXCXCXZXAXFXGXUXUX",
"UXUX{ |  . . .#.#.$.=.n.m.m.m.n.m.m.m.m.m.M.O.+       c c.XX*X!.&       F $X'.'.!.&       A '.'.'.'.*XV   B bXbXCXZXZXAXFXHXUXUX",
"UXUX{ } }  . .#.$.$.=.n.m.m.m.m.m.m.m.m.m.m.3.3     , f.XX.X`.M       : c.$X'.'.N       & ~.*X'.'.'.*XC   C bXbXCXZXZXAXFXDXUXUX",
"UXUX! |  . . .#.#.$.=.n.m.m.m.m.m.m.m.m.M.a.V.r.c - G oX*X*XI O     . 2.6X@X.XW O     . S *X'.'.'.'.'.Q.8 7.bXbXCXZXZXAXFXSXUXUX",
"UXUXQ | |  .@.#.$.$.=.n.m.m.m.m.m.m.m.n.a.s.a.V.C.0.].].`._.7       i L.6X$X`.8       5 ).*X'.'.'.'.'.*X.XsXnXCXCXCXAXAXFXNXUXUX",
"UXUXj | |  .@.@.#.$.=.n.m.m.m.m.M.M.n.a.a.a.V.V.j..X'.=X<XP o     O 4.6X6X&XJ .     o P *X'.'.'.'.'.'.'.=XgXbXbXCXCXZXAXGX>XUXUX",
"UXUXu |  . .@.#.#.$.=.n.m.m.m.m.n.n.p.p.a.s.s.j..X`.-XJXLX<X7     p I.E.E.+X6       m `.'.'.'.'.'.'.'.'.=XgXnXbXCXZXZXAXGX~.UXUX",
"UXUXUX}  . . .#.$.$.=.m.m.m.m.m.n.p.p.p.a.s.g.].`.'.mXLXLXLXJXJ 5 0.E.E.6X2.o     % Q..X'.'.'.'.'.'.'.'.=XgXbXbXCXZXZXAXAXUXUXUX",
"UXUXUX~ |  . .#.#.$.=.m.m.m.m.n.t.t.p.a.s.g..X.X*X'.mXLXLXLXLX<X(.#XI.U.6XF       A '.'.'.'.'.'.'.'.'.'.=XgXbXbXCXZXZXFXhXUXUXUX",
"UXUXUXa |  .#.#.#.$.=.n.m.m.<.:.:.t.p.a.g.'.'.'.'.`.-XJXLXPXBX*X.X#XU.E.6XG     . I *X'.'.'.'.'.'.'.'.'.oXgXbXbXbXZXAXFX XUXUXUX",
"UXUXUXUX{  . .#.#.#.=.n.m.1.>.:.t.t.r.}.'.'.'.'.'.'.'.=X<X<X*X'.'.#XI.U.6Xg.&     C *X.X'.'.'.'.'.'.'.'.=XgXbXbXCXZXAXCXUXUXUXUX",
"UXUXUXUXY @. .#.$.$.*.n.1.;.;.:.,.r.}.'.'.'.'.'.`.*X`.*X`..X`.*X'.#XY.E.6X@XU *   O C ).'.`.W (..X'.'.'.oXgXbXbXCXZXFX:XUXUXUXUX",
"UXUXUXUXUX..@.#.#.$.*.>.*.;.:.:.r.{.'.'.'.'.'.'.*X`.*X`.*X`.*X`.'.#XI.U.6X@X*XQ.m o   6 Z M O 7 ).'.'.'.=XgXbXbXCXZXZXUXUXUXUXUX",
"UXUXUXUXUXY @.#.#.$.*.*.*.:.:.u.{.'.'.'.'.'.'.'.`.*X`.*X`.*X'..X'.#XU.E.E.@X'.'.`.P 5       o C `.'.'.'.=XgXbXbXCXZX:XUXUXUXUXUX",
"UXUXUXUXUXUX..#.#.$.$.*.-.;.r.{.'.'.'.'.'.*X'.'.*X`.*X`.*X`.'.'.'.#XU.U.6X@X'.'.'.'._.U M M P '.'.'.'.'.=XgXbXbXbXSXUXUXUXUXUXUX",
"UXUXUXUXUXUXh #.#.$.$.*.;.w.{.'..X.X`.'.'.'..X`.*X`.*X`.'.'.'.'.'.#XI.6XU.@X'.'.'.'.'..X'..X.X'.'.'.'..X=XgXbXbXZX[.UXUXUXUXUXUX",
"UXUXUXUXUXUXUX~ $.$.*.*.w. X'.'.`..X.X.X'.'..X.X`.*X`.*X.X`.'.'.'.#XP.U.6X@X'.'.'.'.'.'.'.'.'.'.'.'.'.'.=XgXbXbXyXUXUXUXUXUXUXUX",
"UXUXUXUXUXUXUXUXX.$.*.w. X].].'.`..X'..X.X.X.X.X.X.X.X.X.X.X.X.X.X#XY.E.6X@X'.'..X.X'..X.X.X'.'..X.X.X*X=XgXbXxXUXUXUXUXUXUXUXUX",
"UXUXUXUXUXUXUXUXUX#.*.q.u.w.u.i.i.i.i.i.i.h.h.h.l.l.x.x.x.v.v.v.v.L.I.I.E.2X2X3X3X3X3X8X5X5XtXtXtXiXiXiXaXvXzXUXUXUXUXUXUXUXUXUX",
"UXUXUXUXUXUXUXUXUXh $.*.*.;.;.:.:.t.p.p.p.s.s.V.s.C.A.A.K.K.P.J.Y.Y.Y.6X6X6X6X7X9X9XwXwXeXrXkXkXlXlXcXvXvXnX^.UXUXUXUXUXUXUXUXUX",
"UXUXUXUXUXUXUXUXUXUXx *.;.;.:.:.,.t.p.a.a.a.V.V.C.C.C.A.D.J.J.J.P.P.I.I.6X6X6X9X9XwXwXwXeXeXrXkXdXlXcXcXvX/.UXUXUXUXUXUXUXUXUXUX",
"UXUXUXUXUXUXUXUXUXUXUXh %.;.;.:.t.t.t.a.s.a.s.V.C.C.A.A.D.J.J.P.P.I.I.E.6X6X6X7X9XwXwXwXeXeXdXdXlXlXvXzX7.UXUXUXUXUXUXUXUXUXUXUX",
"UXUXUXUXUXUXUXUXUXUXUXUXUX%.:.:.,.t.p.p.a.s.s.V.C.C.A.A.S.J.J.J.P.I.I.I.6X6X7X6X9X9XwXeXeXeXdXkXdXlXaXUXUXUXUXUXUXUXUXUXUXUXUXUX",
"UXUXUXUXUXUXUXUXUXUXUXUXUXUX' :.t.t.p.p.a.s.s.V.C.C.d.A.D.J.J.J.P.P.I.I.6X6X6X9X9XqXqXeXeXeXrXkXlX5XUXUXUXUXUXUXUXUXUXUXUXUXUXUX",
"UXUXUXUXUXUXUXUXUXUXUXUXUXUXUXb &.p.p.a.a.a.s.V.C.C.C.A.S.J.J.P.P.I.I.6X6X6X6X7X9XqXwXwXeXeXkXpX7.UXUXUXUXUXUXUXUXUXUXUXUXUXUXUX",
"UXUXUXUXUXUXUXUXUXUXUXUXUXUXUXUXUX` p.a.a.a.V.V.C.C.A.A.K.J.J.P.P.P.E.U.2X6X7X7X9XqXqXeXeXeX+XUXUXUXUXUXUXUXUXUXUXUXUXUXUXUXUXUX",
"UXUXUXUXUXUXUXUXUXUXUXUXUXUXUXUXUXUXUX` r.V.V.V.C.C.A.A.D.S.J.J.P.P.I.E.E.6X6X7X9XwXwXqX+XUXUXUXUXUXUXUXUXUXUXUXUXUXUXUXUXUXUXUX",
"UXUXUXUXUXUXUXUXUXUXUXUXUXUXUXUXUXUXUXUXUXn q.s.C.A.A.K.S.S.J.P.P.P.U.U.6X6X9X9X7X#X8.UXUXUXUXUXUXUXUXUXUXUXUXUXUXUXUXUXUXUXUXUX",
"UXUXUXUXUXUXUXUXUXUXUXUXUXUXUXUXUXUXUXUXUXUXUXUXc 3.u.d.D.J.J.P.Y.I.I.I.L.v.f.G UXUXUXUXUXUXUXUXUXUXUXUXUXUXUXUXUXUXUXUXUXUXUXUX",
"UXUXUXUXUXUXUXUXUXUXUXUXUXUXUXUXUXUXUXUXUXUXUXUXUXUXUXUXUXUXUXUXUXUXUXUXUXUXUXUXUXUXUXUXUXUXUXUXUXUXUXUXUXUXUXUXUXUXUXUXUXUXUXUX",
"UXUXUXUXUXUXUXUXUXUXUXUXUXUXUXUXUXUXUXUXUXUXUXUXUXUXUXUXUXUXUXUXUXUXUXUXUXUXUXUXUXUXUXUXUXUXUXUXUXUXUXUXUXUXUXUXUXUXUXUXUXUXUXUX"
};
