/* XPM */
static char *_19df16ee3214e31f5845c3189b095e1[] = {
/* columns rows colors chars-per-pixel */
"32 32 249 2 ",
"   c #010203",
".  c #040708",
"X  c #040B0C",
"o  c #0A0A0A",
"O  c #080F10",
"+  c #061214",
"@  c #0D1415",
"#  c #071618",
"$  c #0F1718",
"%  c #091A1C",
"&  c #141414",
"*  c #0A1F21",
"=  c #0B2224",
"-  c #0C272A",
";  c #0C2A2D",
":  c #142224",
">  c #1C2D2E",
",  c #0F2D30",
"<  c #103336",
"1  c #113639",
"2  c #1E3739",
"3  c #212122",
"4  c #272828",
"5  c #2B2B2C",
"6  c #2C2F30",
"7  c #2F3030",
"8  c #223A3D",
"9  c #343536",
"0  c #143D41",
"q  c #343F40",
"w  c #154247",
"e  c #184549",
"r  c #194D52",
"t  c #0A555B",
"y  c #0A585E",
"u  c #1C585E",
"i  c #374143",
"p  c #3F4041",
"a  c #325153",
"s  c #325659",
"d  c #1E5A60",
"f  c #14656A",
"g  c #1F6269",
"h  c #0E757E",
"j  c #12747C",
"k  c #1B727A",
"l  c #26656B",
"z  c #2F6468",
"x  c #24686E",
"c  c #3E6467",
"v  c #326A6F",
"b  c #246E75",
"n  c #23737A",
"m  c #424345",
"M  c #4D4E4F",
"N  c #545556",
"B  c #575858",
"V  c #5A5C5D",
"C  c #5C6E70",
"Z  c #457275",
"A  c #46797D",
"S  c #517375",
"D  c #567578",
"F  c #557A7D",
"G  c #616264",
"H  c #656668",
"J  c #64686A",
"K  c #6A6A6D",
"L  c #6C6E70",
"P  c #6F7173",
"I  c #737678",
"U  c #7A7B7E",
"Y  c #0E7881",
"T  c #1E7E86",
"R  c #267780",
"E  c #277B84",
"W  c #337E84",
"Q  c #4D7F83",
"!  c #1F838B",
"~  c #108993",
"^  c #12939E",
"/  c #29838B",
"(  c #29888F",
")  c #36868C",
"_  c #278C95",
"`  c #2C8B94",
"'  c #3C8C93",
"]  c #2F939D",
"[  c #1897A1",
"{  c #1F9BA5",
"}  c #1A9EA9",
"|  c #2496A0",
" . c #259BA5",
".. c #3096A1",
"X. c #3098A2",
"o. c #319EA9",
"O. c #1AA0AB",
"+. c #24A2AD",
"@. c #35A2AE",
"#. c #3DA6AF",
"$. c #2BA6B0",
"%. c #32A5B0",
"&. c #3DA7B0",
"*. c #34ABB6",
"=. c #3BACB5",
"-. c #37ADB9",
";. c #3AAFBA",
":. c #34B0BC",
">. c #3CB2BD",
",. c #468D93",
"<. c #489298",
"1. c #569297",
"2. c #69868A",
"3. c #6B888A",
"4. c #788587",
"5. c #7C8A8B",
"6. c #649A9F",
"7. c #719093",
"8. c #7F9395",
"9. c #719A9D",
"0. c #4B9CA5",
"q. c #6A9DA1",
"w. c #56A6AD",
"e. c #5DA6AD",
"r. c #4CADB5",
"t. c #40AFB8",
"y. c #5BABB2",
"u. c #45B1BB",
"i. c #4CB4BD",
"p. c #5EB0B7",
"a. c #54B7BF",
"s. c #6DA2A7",
"d. c #6DA3A9",
"f. c #78A3A6",
"g. c #76A4AA",
"h. c #7AA6AC",
"j. c #66ADB2",
"k. c #62B5BC",
"l. c #6EB5BA",
"z. c #6CB8BF",
"x. c #74B3B8",
"c. c #74B9BE",
"v. c #3AB7C3",
"b. c #3BB9C6",
"n. c #3CBBC9",
"m. c #4AB6C0",
"M. c #40BAC6",
"N. c #47BCC8",
"B. c #4FBDC8",
"V. c #51B7C0",
"C. c #56BAC2",
"Z. c #5BBBC3",
"A. c #54BFC8",
"S. c #61BEC6",
"D. c #6CBCC2",
"F. c #73BEC4",
"G. c #50C1CD",
"H. c #68C0C7",
"J. c #6DC3CA",
"K. c #74C5CC",
"L. c #7BC9CF",
"P. c #7CCAD1",
"I. c #77CFD8",
"U. c #838487",
"Y. c #838588",
"T. c #898B8D",
"R. c #808F92",
"E. c #829497",
"W. c #8F9193",
"Q. c #829799",
"!. c #909194",
"~. c #949698",
"^. c #97989B",
"/. c #999B9E",
"(. c #9D9FA2",
"). c #8FA3A7",
"_. c #8EA7AB",
"`. c #82AAAF",
"'. c #8CABAF",
"]. c #92A1A5",
"[. c #9DA1A4",
"{. c #9DA5A8",
"}. c #85ABB0",
"|. c #8DADB1",
" X c #90AEB2",
".X c #99AEB0",
"XX c #8CB0B2",
"oX c #84B7BC",
"OX c #81B8BE",
"+X c #96B3B7",
"@X c #9BB2B3",
"#X c #92B6B9",
"$X c #9CB6B9",
"%X c #9AB9BC",
"&X c #A0A2A6",
"*X c #A4A6A9",
"=X c #AAABAE",
"-X c #AEB1B3",
";X c #A2B7BB",
":X c #A4BABC",
">X c #B3B3B4",
",X c #B7B8BA",
"<X c #B9BABC",
"1X c #87BEC3",
"2X c #88BFC4",
"3X c #AABFC2",
"4X c #87C0C5",
"5X c #8AC2C7",
"6X c #86C4C9",
"7X c #83C9CF",
"8X c #8DC9CE",
"9X c #91CACF",
"0X c #82CBD1",
"qX c #88CED4",
"wX c #94CED2",
"eX c #9CCFD3",
"rX c #8ED1D6",
"tX c #84D5DD",
"yX c #9DD0D5",
"uX c #94D4D9",
"iX c #9DD6DA",
"pX c #9EDADE",
"aX c #A0C4C6",
"sX c #AAC0C3",
"dX c #ADC6C9",
"fX c #A1D2D6",
"gX c #A7D4D8",
"hX c #A2DBDF",
"jX c #AFD9DD",
"kX c #B1D0D4",
"lX c #BCD5D7",
"zX c #A3DEE4",
"xX c #AADEE2",
"cX c #B5DCE1",
"vX c #B2E2E6",
"bX c #BCE2E4",
"nX c #BCE6E9",
"mX c #BEE9EC",
"MX c #D4D5D6",
"NX c #DFDFE0",
"BX c #C5E2E5",
"VX c #C8E5E7",
"CX c #C3E9EB",
"ZX c #C9EBEE",
"AX c #CCEEF1",
"SX c #E3E3E4",
"DX c #F0F0F1",
"FX c #FCFCFC",
"GX c None",
/* pixels */
"GXGXGXGXGXGXGXGXGXGXGXGXGXGXGXGXGXGXGXGXGXGXGXGXGXGXGXGXGXGXGXGX",
"GXGXGXGXGXGXGXGXGXGXGXz ,.w.k.D.F.F.x.q.S GXGXGXGXGXGXGXGXGXGXGX",
"GXGXGXGXGXGXGXGXGXW r.C.Z.S.H.J.K.L.0XrXuX9X9.GXGXGXGXGXGXGXGXGX",
"GXGXGXGXGXGXGXx #.i.i.V.Z.S.H.K.K.L.0XqXrXuXpXeX3.GXGXGXGXGXGXGX",
"GXGXGXGXGXGX/ =.u.u.i.V.Z.S.H.J.K.L.0XqXrXuXiXzXxXXXGXGXGXGXGXGX",
"GXGXGXGXGX_ *.=.u.u.m.V.C.A.H.H.J.L.7X7X9XwXyXfXgXjX%XGXGXGXGXGX",
"GXGXGXGX! :.b.b.n d @.M.b.M.N.n.A.L.4X{.{.{.{.&X{.{.dX$XGXGXGXGX",
"GXGXGXf +.*.n.%.*   , n ;.tXAXI.B.L.4X[.(.(.(.(.(.(.sXmX8.GXGXGX",
"GXGXGX{ +.:.b.u   0 / = e cXFXzXB.L.2X(.(.(.(.(.(.(.sXnXbXGXGXGX",
"GXGXj +.+.v.] + O ] n.0 . 0.tXG.G.L.2X(.(.(.(.(.(.(.sXnXCX.XGXGX",
"GXGX^ +.+.*.w   = X./ X # o.b.o.' z.5X{.>X-X(.(.(.(.3XnXCXBXGXGX",
"GXt } +.$.n . % r = + # b n.` % . > D =XFXDX=X(.[.(.sXnXCXAX4.GX",
"GXh O.+.| -   b b.w X E n.;.<   s Q $ B SXSX*X(.(.(.3XnXCXAX;XGX",
"GX~ } +.k . , -.*.-   / n.n   > z.z.: & ~.&X&X&X{.(.sXnXCXZXlXGX",
"GX^ } }  .n ` n.g   1 :.%.*   8 j.Z   7 ^./.I K W.(.sXnXCXZXBXGX",
"GX^ } +.+.:.n.-., X ` n.d   2 s 4 O o P &XB o o 4 H :XnXCXZXVXGX",
"GX^ } +.+.:.b.b.X.n v.] O O 1._.9   i (.T.& o G L 5 C nXCXZXVXGX",
"GX^ } { +.:.b.b.n.n.b.l . a '.U O $ 9.(.9   m /.&XP q cXCXZXBXGX",
"GX~ } +.$.-.b.b.n.b.i.r.A 8.^.9   c 5XI o & U.&X(.!.E.bXCXAXlXGX",
"GXY } +.+.:.b.b.b.u.i.k._.,X>X3 : x.c.6   N (.(.(.(.dXnXCXAX:XGX",
"GXy O.+.+.:.b.b.>.u.p.).&XNXFX>X2.P.6.. 3 !.(.(.(.(.sXnXCXAX5.GX",
"GXGX[ O.+.:.v.=.u.y.).[./.,XMX>X XP.s.O 9 /.&X&X(.(.sXnXCXBXGXGX",
"GXGXj +.$.*.-.=.e.].&X/./.&X(./. XL.1XH 4 m K V ^.(.sXnXCX@XGXGX",
"GXGXGX{ +.$.*.e.].&X/.&X&X/.&X&X XP.2X{.T.M 7 V ^.(.sXmXbXGXGXGX",
"GXGXGXf $.%.e.].(.(.(.(.(.(.(./. XL.1X{.(.(.^.(.(.(.3XCXQ.GXGXGX",
"GXGXGXGX! &.d.g.h.h.h.`.`.'.'.|.oXL.6X+X$X$X$X$X;X:XkX%XGXGXGXGX",
"GXGXGXGXGX_ -.=.t.u.i.a.Z.S.H.J.K.L.7XqXrXuXiXhXxXvXaXGXGXGXGXGX",
"GXGXGXGXGXGX( =.u.u.i.a.Z.S.H.J.K.L.7XqXrXuXiXhXxX#XGXGXGXGXGXGX",
"GXGXGXGXGXGXGXb &.i.i.C.Z.S.H.J.K.L.7XqXrXuXpXiX7.GXGXGXGXGXGXGX",
"GXGXGXGXGXGXGXGXGX) r.C.Z.S.H.J.K.L.0XqXuXwXf.GXGXGXGXGXGXGXGXGX",
"GXGXGXGXGXGXGXGXGXGXGXv <.y.z.D.K.F.c.s.F GXGXGXGXGXGXGXGXGXGXGX",
"GXGXGXGXGXGXGXGXGXGXGXGXGXGXGXGXGXGXGXGXGXGXGXGXGXGXGXGXGXGXGXGX"
};
