/* XPM */
static char *cc46a2f44355406eff57d1807a3a14c4[] = {
/* columns rows colors chars-per-pixel */
"16 16 183 2 ",
"   c #0C272A",
".  c #1E2324",
"X  c #122B2D",
"o  c #1E3638",
"O  c #123A3E",
"+  c #2B2A2B",
"@  c #22383A",
"#  c #343739",
"$  c #3C3D3E",
"%  c #133D42",
"&  c #144044",
"*  c #16474C",
"=  c #184C51",
"-  c #1A4D52",
";  c #194E54",
":  c #0A5258",
">  c #0A535A",
",  c #14555A",
"<  c #1B565B",
"1  c #3B4446",
"2  c #335456",
"3  c #38575A",
"4  c #1B5B62",
"5  c #3F5E61",
"6  c #0C666E",
"7  c #0C676E",
"8  c #1F6268",
"9  c #157077",
"0  c #157179",
"q  c #21676E",
"w  c #336367",
"e  c #36666A",
"r  c #35686C",
"t  c #25747D",
"y  c #474849",
"u  c #4B4B4D",
"i  c #545455",
"p  c #5B5A5B",
"a  c #486D70",
"s  c #447276",
"d  c #4B7174",
"f  c #4C777B",
"g  c #636466",
"h  c #67686A",
"j  c #6F6F71",
"k  c #6D7072",
"l  c #637C7F",
"z  c #6B787A",
"x  c #287B83",
"c  c #287D85",
"v  c #287E87",
"b  c #307B81",
"n  c #317E85",
"m  c #487F84",
"M  c #5F7C80",
"N  c #7C7D80",
"B  c #259099",
"V  c #27939C",
"C  c #2C959E",
"Z  c #30909A",
"A  c #1B96A1",
"S  c #1C97A2",
"D  c #1D9FAA",
"F  c #2A9AA4",
"G  c #3096A1",
"H  c #379BA3",
"J  c #329BA4",
"K  c #329EA9",
"L  c #1DA0AB",
"P  c #33A0AB",
"I  c #2BA9B4",
"U  c #2EAAB5",
"Y  c #2EAAB6",
"T  c #2EACB7",
"R  c #2FAFBA",
"E  c #36ABB6",
"W  c #498388",
"Q  c #508387",
"!  c #52878B",
"~  c #728182",
"^  c #748384",
"/  c #70979B",
"(  c #739B9F",
")  c #7C9B9F",
"_  c #46AAB2",
"`  c #4FABB3",
"'  c #4DACB3",
"]  c #4DADB5",
"[  c #4CAFB8",
"{  c #43B0BA",
"}  c #48B2BB",
"|  c #54B6BD",
" . c #6BA6AC",
".. c #7DB0B4",
"X. c #3AB5C0",
"o. c #3AB7C4",
"O. c #3BB9C6",
"+. c #3EB9C5",
"@. c #4FB8C1",
"#. c #5FBCC3",
"$. c #59BCC4",
"%. c #58BCC6",
"&. c #5EBDC4",
"*. c #60BBC2",
"=. c #63BFC7",
"-. c #6DC0C7",
";. c #67C5CE",
":. c #6CC3CA",
">. c #68C4CC",
",. c #75C6CD",
"<. c #79C6CC",
"1. c #79C9CF",
"2. c #78CED7",
"3. c #849B9F",
"4. c #909295",
"5. c #979A9C",
"6. c #999C9F",
"7. c #889EA1",
"8. c #8D9FA1",
"9. c #9D9DA0",
"0. c #9C9EA1",
"q. c #9D9EA1",
"w. c #9F9FA1",
"e. c #9F9FA2",
"r. c #86A1A3",
"t. c #85A3A7",
"y. c #8DA0A1",
"u. c #88A3A7",
"i. c #83A5AA",
"p. c #8AA5A9",
"a. c #8DA6A8",
"s. c #8EA6AA",
"d. c #8EA8AA",
"f. c #9DA0A3",
"g. c #9EA1A4",
"h. c #9DA4A7",
"j. c #91A7AB",
"k. c #95A4A8",
"l. c #98A7AB",
"z. c #9DA5A9",
"x. c #8FB9BE",
"c. c #93B2B6",
"v. c #91B4B8",
"b. c #A0A1A4",
"n. c #A3A5A8",
"m. c #A4A6A8",
"M. c #A1AAAD",
"N. c #A3B1B5",
"B. c #A2BCBF",
"V. c #B5B6B8",
"C. c #B7B8BB",
"Z. c #BDBEBF",
"A. c #83BDC2",
"S. c #89BBC1",
"D. c #8AC7CC",
"F. c #87C9CE",
"G. c #8CC9CE",
"H. c #9AC0C3",
"J. c #9DC8CC",
"K. c #85CCD1",
"L. c #85CED3",
"P. c #86CED3",
"I. c #94CCD2",
"U. c #93D1D7",
"Y. c #A4C1C4",
"T. c #A5C2C5",
"R. c #ADCBCE",
"E. c #A1D4D9",
"W. c #A2DADE",
"Q. c #B2D0D3",
"!. c #B3D1D4",
"~. c #B3D2D5",
"^. c #B5D4D7",
"/. c #B6D4D7",
"(. c #92DBE3",
"). c #BCDEE1",
"_. c #BDDFE2",
"`. c #CBCBCC",
"'. c #C7EBEE",
"]. c #C7ECEE",
"[. c #C8EDF0",
"{. c #CAEFF1",
"}. c None",
/* pixels */
"}.}.}.}.}.}.w m Q a }.}.}.}.}.}.",
"}.}.}.}.b ' #.:.1.L.D./ }.}.}.}.",
"}.}.}.J { @.$.>.,.F.I.E.H.}.}.}.",
"}.}.F E = x %.2.>.v.h.z.M.B.}.}.",
"}.9 R q % 4 f (.;.c.q.q.f.^.a.}.",
"}.S B   = O t c e 7.`.m.f.!.).}.",
": L , < 8 * G X s 1 V.n.g.Q.'.~ ",
"6 L V P & c ; @ 2 # N y k R.[.8.",
"6 D R o.K Z o l . z $ u h r.[.y.",
"> D I O.+.` 3.j 3 l + 4.6.Y.].^ ",
"}.S Y X.[ i.C.Z...5 i 0.g.!._.}.",
"}.0 I _ r.e.e.b.S.) p g 6./.d.}.",
"}.}.C  .u.u.d.j.A.x.l.k.N.Y.}.}.",
"}.}.}.H } | *.:.<.L.U.W.J.}.}.}.",
"}.}.}.}.n ] #.:.1.L.G.( }.}.}.}.",
"}.}.}.}.}.}.e W ! d }.}.}.}.}.}."
};
